<!--?xml version="1.0" encoding="utf-8"?-->
<!-- Svg Vector Icons : http://www.onlinewebfonts.com/icon -->

<svg version="1.1" xmlns="http://www.w3.org/2000/svg" xmlns:xlink="http://www.w3.org/1999/xlink" x="0px" y="0px" viewBox="0 0 256 256" enable-background="new 0 0 256 256" xml:space="preserve">
<metadata> Svg Vector Icons : http://www.onlinewebfonts.com/icon </metadata>
<g><g><g><path fill="#5243c2" data-title="Layer 0" xs="0" d="M191.5,73.5c-5,0-9.1-4.1-9.1-9.1V46.3c0-5,4.1-9.1,9.1-9.1h18.2c5,0,9.1,4.1,9.1,9.1v18.2c0,5-4.1,9.1-9.1,9.1H191.5z"/><path fill="#6446f7" data-title="Layer 1" xs="1" d="M128,93.4c-6.6,0-12.7,1.9-17.9,5.1c1.6-0.5,3.3-0.8,5.1-0.8c9.7,0,17.6,7.9,17.6,17.6c0,9.7-7.9,17.6-17.6,17.6c-9.7,0-17.6-7.9-17.6-17.6c0-1.8,0.4-3.5,0.8-5.1c-3.2,5.2-5.1,11.3-5.1,17.9c0,19.1,15.5,34.6,34.6,34.6c19.1,0,34.6-15.5,34.6-34.6C162.6,108.9,147.1,93.4,128,93.4z"/><g><path fill="#6446f7" data-title="Layer 2" xs="2" d="M128,73.5c30.1,0,54.5,24.4,54.5,54.5c0,30.1-24.4,54.5-54.5,54.5S73.5,158.1,73.5,128C73.5,97.9,97.9,73.5,128,73.5 M128,55.4C88,55.4,55.4,88,55.4,128c0,40,32.6,72.6,72.6,72.6c40,0,72.6-32.6,72.6-72.6C200.6,88,168,55.4,128,55.4L128,55.4z"/></g><path fill="#6446f7" data-title="Layer 3" xs="3" d="M201.8,10H54.3C29.8,10,10,29.8,10,54.3v147.5c0,24.4,19.8,44.2,44.3,44.2h147.5c24.4,0,44.2-19.8,44.2-44.2V54.3C246,29.8,226.2,10,201.8,10z M227.8,91.7h-59.3c8.6,9.7,13.9,22.3,13.9,36.3c0,30.1-24.4,54.5-54.5,54.5c-30.1,0-54.5-24.4-54.5-54.5c0-14,5.3-26.7,13.9-36.3H28.2V54.3c0-14.4,11.7-26.1,26.1-26.1h147.5c14.4,0,26.1,11.7,26.1,26.1L227.8,91.7L227.8,91.7z"/></g><g></g><g></g><g></g><g></g><g></g><g></g><g></g><g></g><g></g><g></g><g></g><g></g><g></g><g></g><g></g></g></g>
</svg>