<!--?xml version="1.0" encoding="utf-8"?-->
<!-- Svg Vector Icons : http://www.onlinewebfonts.com/icon -->

<svg version="1.1" xmlns="http://www.w3.org/2000/svg" xmlns:xlink="http://www.w3.org/1999/xlink" x="0px" y="0px" viewBox="0 0 256 256" enable-background="new 0 0 256 256" xml:space="preserve">
<metadata> Svg Vector Icons : http://www.onlinewebfonts.com/icon </metadata>
<g><g><path fill="#5243c2" data-title="Layer 0" xs="0" d="M198.8,74.6c-0.1-0.1-0.3-0.2-0.5-0.4c-8.8-7.6-19.2-11.3-31.1-10.8l-0.4-0.8c0.1-0.1,0.1-0.1,0.2-0.1c10.8-2.3,17.2-4.6,19.1-7.2c0.7-2.1-0.1-3.2-2.5-3.5c-5.4,0.6-10.4,1.7-14.9,3.3c5.7-3.3,7.9-5.7,6.6-6.9c-5.6,0.1-11.6,2.8-18,8c2.4-3.7,3.2-5.7,2.6-6.1c-3,1.9-5.7,4-7.9,6.2c-4.8,4.9-8.6,9.5-11.6,13.6l-0.1,0.4c-7.6,11.3-12.9,22.7-16,34.4l-1.2,0.9l-0.2,0.2c-4.6-5.3-10-9.7-16.5-13.3c-7.7-4.6-16.8-9.1-27.2-13.3c-11.4-5.4-22.9-9.9-34.6-13.4c-0.1,12.1,6.3,21.7,19,28.7v0.2c-4.5-0.1-8.8,0.6-13,1.8c0.8,11.2,9.4,18.9,25.7,23.2l-0.1,0.2c-6.4-0.3-11.7,1.7-15.8,6c5.4,9.7,14.9,14.3,28.6,14c-2.7,1.3-4.9,2.7-6.3,4.3c-2.5,2.4-3.3,5.3-2.5,8.5c2.9,4.9,8.2,7.2,16,6.9l0,0l0.4,0.5c-0.1,0.1-0.1,0.1-0.2,0.2c-13.5,12.8-29.7,18.6-48.8,17.4l-0.3,0.1c-11.6-0.1-24.1-5.2-37.5-15.5c13.5,18,31.5,30.9,53.7,39.1c25.4,7.8,50.9,8.3,76.3,1.7h0.4c24.7-6.6,45.6-20.1,62.8-40.4c7.9-10.7,13-20.9,14.9-30.6c12.9,0.4,22.1-3,27.9-10.3l-0.1-0.2c-4.3,1.4-12.7,1-25.1-1.3v-1.3c0-0.1,0-0.1,0.1,0c13.6-1.4,21.6-5.5,24.2-12.2c-9.5,3.4-18.8,3.5-28.1,0.3C215.3,95.1,209.2,84.4,198.8,74.6z"/></g></g>
</svg>