<!--?xml version="1.0" encoding="utf-8"?-->
<!-- Svg Vector Icons : http://www.onlinewebfonts.com/icon -->

<svg version="1.1" xmlns="http://www.w3.org/2000/svg" xmlns:xlink="http://www.w3.org/1999/xlink" x="0px" y="0px" viewBox="0 0 256 256" enable-background="new 0 0 256 256" xml:space="preserve">
<metadata> Svg Vector Icons : http://www.onlinewebfonts.com/icon </metadata>
<g><g><path fill="#fff" data-title="Layer 0" xs="0" d="M246,128.9c0-3-1.5-5.9-4.4-8.9l-90-89.9c-4.4-4.4-11.8-4.4-14.8,0c-3,4.4-4.4,10.3,0,14.8l72.3,72.3H20.3C14.4,118.6,10,123,10,128.9c0,5.9,4.4,10.3,10.3,10.3h188.8l-72.3,72.3c-4.4,4.4-4.4,10.3,0,14.8c1.5,1.5,4.4,3,7.4,3s5.9-1.5,7.4-3l90-90C244.5,134.8,246,131.9,246,128.9z"/></g></g>
</svg>