<!--?xml version="1.0" encoding="utf-8"?-->
<!-- Svg Vector Icons : http://www.onlinewebfonts.com/icon -->

<svg version="1.1" xmlns="http://www.w3.org/2000/svg" xmlns:xlink="http://www.w3.org/1999/xlink" x="0px" y="0px" viewBox="0 0 256 256" enable-background="new 0 0 256 256" xml:space="preserve">
<metadata> Svg Vector Icons : http://www.onlinewebfonts.com/icon </metadata>
<g><g><g><path fill="#5243c2" data-title="Layer 0" xs="0" d="M135.9,27.8c-4.4,1.1-9.5,4.9-12,8.8c-1.8,2.8-2.9,7.4-2.6,10.2c0.5,3.4,2.4,7.3,5,9.9c1.2,1.2,14.7,13.8,29.8,27.9l27.5,25.6l-80.8,0.3l-80.8,0.3l-2.9,1.4c-5.7,2.8-8.7,7.8-9.1,15.1c-0.2,3.9,0,5.1,1,7.7c1.4,3.9,4.8,7.5,8.4,9.1l2.7,1.2l80.8,0.3l80.8,0.3l-25,23.3c-33,30.6-34.4,32.1-36,35.1c-2,3.8-2,9.2,0.1,13.3c2,4,5.5,7.5,9.7,9.4c2.8,1.3,4,1.6,7.2,1.6c5.9,0,8.2-1.3,17.1-9.6c69.1-64.2,83.2-77.3,84.7-79.1c5.5-5.9,6-15.3,1.4-21.8c-0.9-1.3-20.7-19.9-43.8-41.5c-23.1-21.5-43.9-40.8-46-42.7c-2.1-2-5.1-4.2-6.5-4.9C143.6,27.7,138.8,27.1,135.9,27.8z"/></g></g></g>
</svg>