<!--?xml version="1.0" encoding="utf-8"?-->
<!-- Svg Vector Icons : http://www.onlinewebfonts.com/icon -->

<svg version="1.1" xmlns="http://www.w3.org/2000/svg" xmlns:xlink="http://www.w3.org/1999/xlink" x="0px" y="0px" viewBox="0 0 256 256" enable-background="new 0 0 256 256" xml:space="preserve">
<metadata> Svg Vector Icons : http://www.onlinewebfonts.com/icon </metadata>
<g><g><g><path fill="#e1a524" data-title="Layer 0" xs="0" d="M53.3,34.3L51.5,36v15.8c0,17.7,0.1,18,4.3,18.7c1.8,0.3,2.4,0.1,3.7-1.1l1.6-1.6V52.3c0-16.5-0.2-17.9-2.8-19.1C56.1,32.2,55.2,32.4,53.3,34.3z"/><path fill="#e1a524" data-title="Layer 1" xs="1" d="M197.5,33.2c-2.4,1.1-2.6,2.8-2.6,19.1v15.5l1.5,1.4c0.9,1,2.2,1.5,3.3,1.5c1.1,0,2.4-0.5,3.3-1.5l1.5-1.4V52.3c0-16.5-0.2-17.9-2.8-19.1C199.9,32.4,199.2,32.4,197.5,33.2z"/><path fill="#e1a524" data-title="Layer 2" xs="2" d="M22.2,52.2c-5,1.6-8.4,4.4-10.8,9L10,63.9v73.8v73.8l1.4,2.7c1.9,3.6,4,5.8,7.5,7.6l3,1.6H128h106.1l3-1.6c3.3-1.7,5.6-4.1,7.6-7.9l1.3-2.4v-73.8V63.9l-1.6-3c-1.9-3.5-4-5.6-7.6-7.5c-2.5-1.4-3.4-1.4-15.1-1.6l-12.4-0.2v4.8v4.8h11.4h11.4l2.3,2.3l2.3,2.3v12v12H128H19.3V78.2c0-17.1-0.2-17,16.4-17h11.1v-4.8v-4.8l-11.5,0.1C28.9,51.7,23.1,51.9,22.2,52.2z M236.7,154.5v55l-2.3,2.3l-2.3,2.3H128.3c-95,0-103.9-0.1-105.5-1c-3.8-2.3-3.6,1.2-3.6-59V99.4H128h108.7V154.5z"/><path fill="#e1a524" data-title="Layer 3" xs="3" d="M37.8,133.8V149H53h15.2v-15.2v-15.2H53H37.8L37.8,133.8L37.8,133.8z M58.7,133.8v5.7H53h-5.7v-5.7v-5.7H53h5.7V133.8z"/><path fill="#e1a524" data-title="Layer 4" xs="4" d="M88,133.8V149h15.2h15.2l-0.1-15.1l-0.2-15.1l-15.1-0.2L88,118.6V133.8L88,133.8z M108.9,133.8v5.7h-5.7h-5.7v-5.7v-5.7h5.7h5.7V133.8z"/><path fill="#e1a524" data-title="Layer 5" xs="5" d="M138,119c-0.2,0.2-0.4,7.1-0.4,15.2V149h15.2H168v-15.2v-15.2h-14.8C145,118.6,138.2,118.7,138,119z M158.5,133.8v5.7h-5.7h-5.7v-5.7v-5.7h5.7h5.7V133.8z"/><path fill="#e1a524" data-title="Layer 6" xs="6" d="M187.7,133.8V149H203h15.2v-15.2v-15.2H203h-15.2V133.8z M208.7,133.8v5.7H203h-5.7v-5.7v-5.7h5.7h5.7V133.8z"/><path fill="#e1a524" data-title="Layer 7" xs="7" d="M37.8,181.6v15.2H53h15.2v-15.2v-15.2H53H37.8L37.8,181.6L37.8,181.6z M58.7,181.6v5.7H53h-5.7v-5.7v-5.7H53h5.7V181.6z"/><path fill="#e1a524" data-title="Layer 8" xs="8" d="M88,181.6v15.2h15.2h15.2l-0.1-15.1l-0.2-15.1l-15.1-0.2L88,166.4V181.6L88,181.6z M108.9,181.6v5.7h-5.7h-5.7v-5.7v-5.7h5.7h5.7V181.6z"/><path fill="#e1a524" data-title="Layer 9" xs="9" d="M138,166.8c-0.2,0.2-0.4,7.1-0.4,15.2v14.8h15.2H168v-15.2v-15.2h-14.8C145,166.4,138.2,166.5,138,166.8z M158.5,181.6v5.7h-5.7h-5.7v-5.7v-5.7h5.7h5.7V181.6z"/><path fill="#e1a524" data-title="Layer 10" xs="10" d="M187.7,181.6v15.2H203h15.2v-15.2v-15.2H203h-15.2V181.6z M208.7,181.6v5.7H203h-5.7v-5.7v-5.7h5.7h5.7V181.6z"/><path fill="#e1a524" data-title="Layer 11" xs="11" d="M65.9,56.4v4.8H128h62.1v-4.8v-4.8H128H65.9V56.4z"/></g></g></g>
</svg>