<?xml version="1.0" encoding="utf-8"?>
<!-- Svg Vector Icons : http://www.onlinewebfonts.com/icon -->
<!DOCTYPE svg PUBLIC "-//W3C//DTD SVG 1.1//EN" "http://www.w3.org/Graphics/SVG/1.1/DTD/svg11.dtd">
<svg version="1.1" xmlns="http://www.w3.org/2000/svg" xmlns:xlink="http://www.w3.org/1999/xlink" x="0px" y="0px" viewBox="0 0 256 256" enable-background="new 0 0 256 256" xml:space="preserve">
<metadata> Svg Vector Icons : http://www.onlinewebfonts.com/icon </metadata>
<g><g><g><path fill="#8a8787" d="M115.8,18C90.7,20.2,67,29.2,47.6,43.8c-4.7,3.6-13.8,12.4-17.5,17C7.9,88.2,3.8,123.2,19.2,154c4.9,9.8,9.9,16.6,19,26c9.9,10.3,9.8,9.8,10.1,32.1l0.2,17.3l1.2,2.1c2.8,4.7,6.9,7.1,12.1,7.1c2.3,0,3.9-0.3,5.3-1c1.2-0.5,9.1-5.4,17.7-10.9c8.6-5.5,16.7-10.4,18.2-10.9c5.1-1.9,8.2-2.2,20.1-2c12.5,0.3,20-0.2,29.8-2c12.8-2.3,24-6,35.5-11.8c42.5-21.2,64.2-60.6,55.8-101.5c-6-29.3-29.2-55.7-61.4-69.7C162.2,19.8,138.5,16,115.8,18z M145.3,32.4c14.3,1.9,25.6,5.2,37.8,11.1c28.9,14,46.2,37.4,48.7,66.1c1.5,16.2-2.8,33.1-11.9,47.1c-13.1,20.1-36.5,35-63.8,40.6c-10.9,2.3-13.4,2.5-30.3,2.6c-17,0.1-19.2,0.3-25.8,2.4c-5.3,1.7-7.1,2.7-23.3,13l-14.5,9.3l-0.2-15.6l-0.2-15.5l-1.7-4.8c-2.5-7.1-5.3-11.3-11.9-18c-13.7-13.9-20.1-25.2-23.2-41.2c-1.3-6.8-1.4-19.4-0.2-26.4c4.6-25.5,21.7-46.8,48-59.5c12.7-6.1,25.8-9.8,39.7-11.2c2.8-0.3,5.8-0.6,6.7-0.7C122.5,31.2,140.4,31.8,145.3,32.4z"/></g></g></g>
</svg>