<!--?xml version="1.0" encoding="utf-8"?-->
<!-- Svg Vector Icons : http://www.onlinewebfonts.com/icon -->

<svg version="1.1" xmlns="http://www.w3.org/2000/svg" xmlns:xlink="http://www.w3.org/1999/xlink" x="0px" y="0px" viewBox="0 0 256 256" enable-background="new 0 0 256 256" xml:space="preserve">
<metadata> Svg Vector Icons : http://www.onlinewebfonts.com/icon </metadata>
<g><g><path fill="#fff" data-title="Layer 0" xs="0" d="M118,10c6.7,0,13.4,0,20.1,0c62.9,9.1,99.2,48.3,108,108c0,6.7,0,13.4,0,20.1c-8.7,59.6-45.1,98.9-108,108c-6.7,0-13.4,0-20.1,0c-62.9-9.1-99.2-48.3-108-108c0-6.7,0-13.4,0-20.1C18.7,58.3,55.1,19.1,118,10z M122.7,20c-21,7.1-30,26.2-37.2,47.2c12,1.8,23.4,4.1,37.2,4.1C123.6,55.6,123.6,35.8,122.7,20z M133.3,71.4c13.8,0,25.1-2.4,37.2-4.1c-7.2-21.1-16.1-40.5-37.8-47.2C133.1,37,131.9,55.4,133.3,71.4z M48.9,54.8c8.4,3.9,17.4,7.4,27.1,10c5.1-15.6,12-29.3,21.8-40.1c0.1-0.8,0.9-1.2-0.6-1.2C77.8,30.7,60.3,39.7,48.9,54.8z M179.9,64.9c9.7-2.6,18.6-6.1,27.1-10c-11.6-14.8-29.9-26-49.6-30.7C167.7,34.9,174.7,49,179.9,64.9z M42.5,61.9c-12.9,15.3-21.1,35.2-23,61.4c15.7,0,31.5,0,47.2,0c0-16.9,3.4-35.4,6.5-49.6C61.7,71,51.7,66.9,42.5,61.9z M213.6,61.9c-9.2,5-19.3,9-30.7,11.8c3.1,14.2,6.5,32.7,6.5,49.6c15.7,0,31.4,0,47.2,0C234.6,97.1,226.3,77.2,213.6,61.9z M82.6,76.1c-3.4,12.5-6,29.9-6.5,47.2c15.7,0,31.5,0,47.2,0c0-14.2,0-28.3,0-42.5C108.8,80.1,94.8,78.9,82.6,76.1z M132.7,80.8c0,14.2,0,28.3,0,42.5c15.8,0,31.5,0,47.2,0c-0.8-17.2-2.5-35.6-7.1-47.2C161,79.1,146.8,80,132.7,80.8z M41.9,194.1c9.7-4.6,19.6-9.2,31.3-11.8c-3.1-14.2-6.5-32.7-6.5-49.6c-15.7,0-31.5,0-47.2,0C21.1,159,29.9,178.1,41.9,194.1z M76.1,132.7c0.5,17.3,3.1,34.7,6.5,47.2c12.2-2.9,26.3-3.9,40.7-4.7c0-14.2,0-28.3,0-42.5C107.5,132.7,91.8,132.7,76.1,132.7z M132.7,132.7c0,14.2,0,28.3,0,42.5c14.4,0.7,28.4,1.8,40.7,4.7c3.4-12.5,6-29.9,6.5-47.2C164.2,132.7,148.4,132.7,132.7,132.7z M182.9,182.3c11.8,2.7,21.5,7.3,31.3,11.8c11.9-16,20.7-35.1,22.4-61.4c-15.8,0-31.5,0-47.2,0C189.3,149.5,185.9,168.1,182.9,182.3z M85.5,188.8c7.2,21.1,16.1,40.5,37.8,47.2c0-16.9,0-33.8,0-50.7C110.3,183.7,97.5,187.4,85.5,188.8z M133.9,184.6c-0.8,0.2-1.2,0.8-1.2,1.8c0,16.5,0,33,0,49.6c21.7-6.7,30.5-26.1,37.8-47.2C158.6,187,147.4,184.7,133.9,184.6z M74.9,191.1c-8.8,3.2-17.9,6.1-26,10c11.6,14.8,29.9,26,49.6,30.7C87.5,221.4,82.1,205.3,74.9,191.1z M157.5,232.4c20.5-6.4,37.8-16.1,49.6-31.3c-8.4-3.9-17.4-7.4-27.1-10C174.9,207.3,167.2,220.9,157.5,232.4z"/></g></g>
</svg>