<!--?xml version="1.0" encoding="utf-8"?-->
<!-- Svg Vector Icons : http://www.onlinewebfonts.com/icon -->

<svg version="1.1" xmlns="http://www.w3.org/2000/svg" xmlns:xlink="http://www.w3.org/1999/xlink" x="0px" y="0px" viewBox="0 0 256 256" enable-background="new 0 0 256 256" xml:space="preserve">
<metadata> Svg Vector Icons : http://www.onlinewebfonts.com/icon </metadata>
<g><g><g><path fill="#e1a524" data-title="Layer 0" xs="0" d="M81.5,44.9c-8.8,1.7-15.6,5.3-22.1,11.4c-6,5.8-10.4,13.6-12,21.7c-0.9,4.3-0.7,12.3,0.5,16.6c3.8,14.9,16.1,26.9,30.9,30.4c3.8,0.9,9.7,1.4,11.2,1c1.3-0.3,1.3-0.3,0.4-7.6l-0.2-1.9h-3.8c-14.2,0-26.4-9.8-29.6-23.8c-1.2-5.3-0.7-13,1-18.1c2.6-7.7,7.8-13.7,15.2-17.3c9.1-4.5,19.1-4.6,28-0.3l3.6,1.7l2.5-3.8l2.5-3.8l-1.1-0.6c-1.9-1.2-7.1-3.5-10.5-4.5C94.7,45,84.4,44.4,81.5,44.9z"/><path fill="#e1a524" data-title="Layer 1" xs="1" d="M160.5,45.4c-5.5,1.2-13.9,4.8-13.6,5.9c0,0.2,1.1,2,2.3,4l2.2,3.5l3.6-1.8c8.9-4.3,18.9-4.2,28,0.3c7.3,3.6,12.6,9.5,15.2,17.3c1.7,5,2.1,12.7,1,18c-2.2,10.5-9.2,18.4-19.3,22.3c-3.1,1.2-4.7,1.4-8.9,1.6l-5.2,0.2l-0.3,3.1c-0.1,1.7-0.4,3.7-0.5,4.5c-0.2,1.3-0.1,1.5,1,1.8c1.6,0.4,7.5-0.1,11.5-1.1c16.6-3.7,29.9-18.8,31.5-35.6c1.8-18-9-35.2-26.2-42.1C176.3,44.7,167.4,43.9,160.5,45.4z"/><path fill="#e1a524" data-title="Layer 2" xs="2" d="M120.6,55.5c-10,2.1-18.8,7.6-25.2,16.2c-2.2,2.9-4.9,8.3-6.4,12.6c-1.2,3.6-1.3,4.5-1.3,11.3c0,7.2,0,7.5,1.5,11.9c5.4,15.8,18.5,26.4,34.9,28.5c17,2.1,35.2-9.2,41.6-25.9c2.3-5.8,2.9-10,2.6-16.3c-0.2-6.4-1.6-11.2-4.5-16.7C155.4,61,137.4,52.1,120.6,55.5z M137.9,65.6c9.7,3.1,16.6,10,19.9,19.9c1.1,3.3,1.2,4.3,1.2,10.1c0,5.7-0.2,6.9-1.2,10.1c-2.6,7.9-8.2,14.4-15.2,17.8c-5.3,2.5-8.4,3.2-14.4,3.3c-8.8,0-16-2.7-22.1-8.4c-3.8-3.6-6.2-7.5-7.9-12.6c-1.1-3.3-1.2-4.4-1.2-10.1s0.1-6.9,1.2-10.1c3.7-11.1,11.8-18.3,23.4-20.8C126.1,63.7,133.4,64.1,137.9,65.6z"/><path fill="#e1a524" data-title="Layer 3" xs="3" d="M53.6,120.8c-23.2,11.4-39.3,35.1-43,63.1L10,188l1.8,2.5c2,2.9,1.4,2.7,11.9,4.8c9.7,2,21.6,3.6,22,3.1c0.2-0.4,1-6.2,1.1-8.4c0-0.2-2.7-0.8-6-1.2c-3.3-0.5-9.4-1.5-13.5-2.3l-7.5-1.5l0.3-1.9c1.3-8.4,4-17.1,7.3-23.6c6.7-13.3,17-23.7,29.8-30l5.4-2.7l-1.7-4.2c-0.9-2.4-1.8-4.2-1.9-4.2C58.7,118.3,56.3,119.4,53.6,120.8z"/><path fill="#e1a524" data-title="Layer 4" xs="4" d="M195.2,122.6l-1.7,4.3l4.2,2c19.8,9.4,33.2,27.5,37.6,50.7c0.6,2.9,0.9,5.3,0.8,5.3c-0.3,0.3-14.8,3-20.4,3.7c-3.3,0.5-6.1,0.9-6.3,1.1c-0.2,0.1,0,2.3,0.2,4.7l0.6,4.4l1.6-0.1c5.6-0.5,23.2-3.6,29.1-5.2c1.2-0.4,2.1-1.1,3.4-2.9l1.7-2.4l-0.6-4.3c-0.7-5.9-3.1-15.3-5.4-21.1c-7.3-18.4-20.6-33.3-36.9-41.5C196.5,117.8,197.2,117.7,195.2,122.6z"/><path fill="#e1a524" data-title="Layer 5" xs="5" d="M94.9,130.6c-7.5,3.6-12.9,7.6-19.9,14.4c-6.8,6.9-11.1,12.7-15.1,20.7c-4.8,9.6-7.3,18.1-9,30.6c-0.2,1.8-0.1,2.1,3.3,6.7c0.2,0.4,9.7,2.4,17.4,3.7c16.7,2.9,30.1,4.1,50,4.5c25.8,0.5,47.3-1.3,69.1-5.7c11.4-2.3,11-2.1,13-5l1.7-2.4l-0.4-3.6c-1.7-13.3-6.5-26.5-14.1-38c-4.5-6.7-13.9-16.3-20.4-20.6c-4-2.7-13.7-7.8-14-7.4c-0.3,0.3-3.5,8.4-3.4,8.5c0,0,2.3,1.1,4.9,2.4c12.9,6.2,23.3,16.6,29.9,30c2.8,5.6,5.2,12.5,6.4,18.4c1.2,6.3,1.4,7,0.9,7.3c-0.2,0.1-3.5,0.8-7.3,1.6c-32.8,6.4-71.6,7.2-106.9,2.2c-7.7-1.1-19.9-3.5-20.3-4c-0.4-0.5,0.7-6.9,2.2-11.9c5.6-19.9,18.1-35.4,35.2-43.7c2.7-1.3,4.9-2.4,4.9-2.4c0.2-0.1-3.3-8.5-3.5-8.5C99.4,128.5,97.2,129.4,94.9,130.6z"/></g></g></g>
</svg>