<!--?xml version="1.0" encoding="utf-8"?-->
<!-- Svg Vector Icons : http://www.onlinewebfonts.com/icon -->

<svg version="1.1" xmlns="http://www.w3.org/2000/svg" xmlns:xlink="http://www.w3.org/1999/xlink" x="0px" y="0px" viewBox="0 0 256 256" enable-background="new 0 0 256 256" xml:space="preserve">
<metadata> Svg Vector Icons : http://www.onlinewebfonts.com/icon </metadata>
<g><g><g><path fill="#8a8787" data-title="Layer 0" xs="0" d="M119.8,10.3c-19.1,1.6-37.4,9-52.4,21.1c-4.7,3.8-13,12.4-16.5,17.1c-12.7,17-19.2,36.8-19.2,58.1c0,24.8,9.4,48,26.7,66.4c20.1,21.4,69.2,72.9,69.4,73c0.4,0.1,72.3-75.8,75.4-79.6c15.1-18.9,22.9-44.1,20.8-67.4c-2.1-23.6-11.7-44.3-28-60.7C175.8,18.2,148.1,8,119.8,10.3z M143.9,24.8c33.2,6.7,58.9,32.5,65.7,65.9c1,4.7,1.1,6.8,1.1,16c0,9.1-0.1,11.4-1.1,15.7c-3.1,14.4-10,28.3-18.9,38.4c-6.5,7.3-62.5,65.9-62.8,65.8c-0.4-0.1-54.7-57.4-60.9-64.2c-11.6-12.8-18.5-27-21.3-44.2c-0.9-5.7-0.7-19.7,0.3-25.6c3.3-18.6,13.2-36.4,26.8-48.4c4.9-4.3,12.7-9.6,17.9-12.2c7.6-3.8,18.1-7.1,26.4-8.2C122.9,23.1,138,23.6,143.9,24.8z"/><path fill="#8a8787" data-title="Layer 1" xs="1" d="M118.2,49.3c-11.9,2-24.3,8.7-32.7,17.7C64.8,89.4,65,124,86,146c8.6,9.1,19.7,15.1,31.6,17.2c6.2,1.1,15.6,1,21.8-0.3c20.2-4.1,37.1-19.1,43.5-38.6c5.3-16.2,3.1-34.1-5.9-48.7c-3.5-5.7-11.8-14.1-17.5-17.8c-4.5-2.9-10.7-5.8-15.2-7.1C136.4,48.5,126.2,47.9,118.2,49.3z M137.2,62.7c16.7,3.5,30,16.6,34.1,33.4c1.3,5.4,1.4,14.1,0.2,19.4c-3.6,16.3-15.3,28.8-31.5,33.8c-3.9,1.2-5,1.3-12,1.3c-9.1,0-12.8-0.8-19.8-4.3c-11.3-5.6-20.1-16.2-23.5-28.5c-1.5-5.2-1.6-17.1-0.2-22.2c3.3-12.4,11.2-22.5,22.1-28.5c4.9-2.8,10.1-4.3,17.1-5.3C126.2,61.5,133.7,62,137.2,62.7z"/></g></g></g>
</svg>