<!--?xml version="1.0" encoding="utf-8"?-->
<!-- Svg Vector Icons : http://www.onlinewebfonts.com/icon -->

<svg version="1.1" xmlns="http://www.w3.org/2000/svg" xmlns:xlink="http://www.w3.org/1999/xlink" x="0px" y="0px" viewBox="0 0 256 256" enable-background="new 0 0 256 256" xml:space="preserve">
<metadata> Svg Vector Icons : http://www.onlinewebfonts.com/icon </metadata>
<g><g><g><path fill="#e1a524" data-title="Layer 0" xs="0" d="M120.3,10.2c-25.4,3.4-46.7,18.3-57.8,40.7c-4.7,9.5-7,18.3-7.6,28.8c-0.7,13.1,2.1,25.2,8.8,38.3c6.4,12.4,9.8,17.6,25.7,38.9c19.1,25.6,25.9,37.2,32.6,55.3c1,2.9,3,4.2,6.1,4.2c3.4,0,5.2-1.6,6.6-5.6c2.4-7.2,6.9-16.6,12.2-25.5c4.5-7.5,9-14,20-28.7c15.1-20.2,19.1-26.2,25.4-38.5c6.4-12.4,8.8-22.1,8.8-34.9c0-9.4-0.8-14.6-3.6-22.9c-3.8-11.5-8.9-19.6-17.9-28.6c-10.9-10.8-22.7-17.3-37.4-20.5C137.7,10.3,124.5,9.6,120.3,10.2z M138.3,23.3c25.4,4.4,45.6,24.8,49.8,50.2c0.7,3.8,0.8,6.7,0.6,12.1c-0.4,10.9-2.4,17.5-8.7,29.4c-4.8,9-10.1,16.9-22.7,33.8c-15.8,21.2-21.4,29.6-26.6,40c-1.3,2.6-2.4,4.7-2.6,4.7s-0.9-1.3-1.7-2.8c-5.1-10.6-12.2-21.4-26.8-40.9c-25.2-33.7-31.5-46.3-32.2-64.2c-0.6-17.1,4.9-31.9,16.5-44C98.6,26.4,118.1,19.8,138.3,23.3z"/><path fill="#e1a524" data-title="Layer 1" xs="1" d="M121.8,56.8c-10.5,3-18,10.7-20.2,21c-0.9,4.2-0.9,6.8,0,11c2.1,9.9,10.4,18.3,20.4,20.7c3.1,0.7,9.2,0.7,12.2,0c9.4-2.2,17.5-10.2,20.2-19.6c1-3.7,0.8-10.5-0.4-14.6c-2.5-8-9.2-14.9-17.3-17.7C132.7,56.1,125.5,55.7,121.8,56.8z"/><path fill="#e1a524" data-title="Layer 2" xs="2" d="M160.7,187.6c-1.8,1-3.4,3.5-3.4,5.3c0,1.7,1.4,4.4,2.6,5.1c0.5,0.3,2.6,1.3,4.5,2.1c7.3,3.2,13.2,8.1,14.4,11.9c1.8,6.2-9.8,14.7-25.7,18.7c-8.4,2-14.7,2.8-24.9,2.8c-10.2,0-16.6-0.7-24.8-2.8c-16.2-4-27.8-12.5-25.8-18.9c1.3-3.7,6.9-8.4,14.3-11.8c2.1-0.9,4-2.2,4.5-2.8c2.2-3.4,1-7.6-2.6-9.2c-2.6-1.2-4-0.9-9.6,1.9c-8.3,4.2-14.8,10-17.4,15.7c-1.4,2.9-1.5,3.6-1.5,8s0.1,5.1,1.5,7.8C73.9,236,99,246,128.1,246c29.3,0,54.5-10.2,61.4-24.6c1.4-3,1.6-3.7,1.6-7.9c0-4.1-0.1-5-1.5-7.8c-2.9-6.1-9.7-12-18.9-16.4C165,186.7,163,186.3,160.7,187.6z"/></g></g></g>
</svg>