<!--?xml version="1.0" encoding="utf-8"?-->
<!-- Svg Vector Icons : http://www.onlinewebfonts.com/icon -->

<svg version="1.1" xmlns="http://www.w3.org/2000/svg" xmlns:xlink="http://www.w3.org/1999/xlink" x="0px" y="0px" viewBox="0 0 256 256" enable-background="new 0 0 256 256" xml:space="preserve">
<metadata> Svg Vector Icons : http://www.onlinewebfonts.com/icon </metadata>
<g><g><g><path fill="#ffa800" data-title="Layer 0" xs="0" d="M126.4,15.8c-1.3,0.5-3.2,2.5-3.8,3.8c-0.3,0.7-5.9,17.9-12.5,38.1C103.6,77.8,98,94.7,97.6,95.1c-1.9,2.2-1.5,2.2-43.2,2.2c-43.3,0-42.4-0.1-43.8,2.9c-1.1,2.6-0.7,4.3,1.7,6.7c1.2,1.2,15.6,11.9,31.9,23.8c16.4,11.9,30.4,22.1,31.2,22.9c2.8,2.6,3.1,1.7-10.3,42.7c-13.3,40.9-13.1,40.1-10.4,42.8c1.4,1.4,4.7,1.7,6.7,0.6c0.6-0.3,15.2-10.8,32.3-23.2c17.1-12.5,31.7-22.9,32.5-23.3c1-0.4,1.9-0.4,3.1-0.1c0.9,0.3,15.8,10.8,33,23.2c17.2,12.5,31.8,23,32.5,23.4c1.6,0.8,4.3,0.8,5.8,0c1.6-0.8,2.8-3.9,2.3-6c-0.2-0.9-5.7-18.2-12.3-38.4c-6.6-20.3-12-37.5-12-38.2s0.5-1.9,1-2.7c0.6-0.7,15-11.5,32.1-23.9c17.1-12.4,31.7-23.3,32.6-24.3c2.1-2.3,2.1-4.8,0.1-7l-1.5-1.7L202,97.3c-41.9-0.3-42-0.3-43.7-2.2c-0.3-0.4-6-17.3-12.5-37.5c-6.6-20.2-12.2-37.3-12.5-38.1C132.2,16.8,128.7,14.9,126.4,15.8z M139,62.5c5.9,18.1,11.2,34.1,11.9,35.4c1.3,2.5,4,5.1,6.7,6.3c1.1,0.5,10.1,0.7,38.5,0.9l37,0.3l-28.1,20.4c-15.4,11.2-28.9,21-29.9,21.9c-1,0.8-2.3,2.7-3,4.2c-2.4,5.1-2.4,5.1,9.7,42.4c6.1,18.5,10.9,33.8,10.8,33.9c-0.1,0.1-13.2-9.2-29.1-20.7c-15.9-11.5-29.8-21.3-30.9-21.7c-2.7-0.9-6.5-0.9-9.1,0c-1.1,0.4-15.1,10.2-31,21.7c-15.9,11.5-28.9,20.8-29,20.7c-0.2-0.1,4.7-15.4,10.8-33.9c9.2-28.2,11-34.2,11-36.8c0-3.3-1.4-6.8-3.3-8.9c-0.6-0.7-14.1-10.7-30-22.2l-28.9-21l37-0.3c21.1-0.2,37.4-0.5,38-0.7c2.7-1.3,5.3-3.4,6.5-5.3c0.8-1.3,6-16.3,12.3-35.9c6.1-18.6,11.1-33.8,11.2-33.8C128.2,29.5,133.1,44.4,139,62.5z"/></g></g></g>
</svg>