<!--?xml version="1.0" encoding="utf-8"?-->
<!-- Svg Vector Icons : http://www.onlinewebfonts.com/icon -->

<svg version="1.1" xmlns="http://www.w3.org/2000/svg" xmlns:xlink="http://www.w3.org/1999/xlink" x="0px" y="0px" viewBox="0 0 256 256" enable-background="new 0 0 256 256" xml:space="preserve">
<metadata> Svg Vector Icons : http://www.onlinewebfonts.com/icon </metadata>
<g><g><g><path fill="#ffa800" data-title="Layer 0" xs="0" d="M113,54.2L98.3,98.3l-44.1,0.1L10,98.5l36.7,29l36.7,29.1l-8.5,25.9c-4.7,14.3-11.3,34.3-14.6,44.6c-3.4,10.3-6,18.6-5.7,18.5c0.2-0.1,16.5-12.2,36.3-26.9c19.7-14.7,36.2-27,36.7-27.2c0.6-0.3,8.9,5.6,37.2,26.8c20.1,15,36.5,27.1,36.6,26.9c0.1-0.2-6.3-20.2-14.2-44.6c-7.9-24.3-14.3-44.4-14.2-44.8c0.1-0.3,16.6-13.3,36.6-28.9L246,98.5l-44.2-0.1l-44.2-0.1L143,54.5c-8-24.1-14.7-43.9-14.9-44.1S121.1,29.9,113,54.2z"/></g></g></g>
</svg>