<?xml version="1.0" encoding="utf-8"?>
<!-- Svg Vector Icons : http://www.onlinewebfonts.com/icon -->
<!DOCTYPE svg PUBLIC "-//W3C//DTD SVG 1.1//EN" "http://www.w3.org/Graphics/SVG/1.1/DTD/svg11.dtd">
<svg version="1.1" xmlns="http://www.w3.org/2000/svg" xmlns:xlink="http://www.w3.org/1999/xlink" x="0px" y="0px" viewBox="0 0 256 256" enable-background="new 0 0 256 256" xml:space="preserve">
<metadata> Svg Vector Icons : http://www.onlinewebfonts.com/icon </metadata>
<g><g><path fill="#8a8787" d="M161.6,144.8L161.6,144.8c22-12.1,37.2-35.7,37.2-62.9c0-39.3-32-71.9-71.3-71.9c-39.3,0-71.3,32-71.3,71.3c0,27.3,15.2,50.9,37.2,62.9l0,0c-38.8,14.2-66.1,51.4-66.1,94.4c0,4.2,3.2,7.3,7.3,7.3c4.2,0,7.3-3.2,7.3-7.3c0-47.2,38.3-86,86-86s86,38.3,86,86c0,4.2,3.2,7.3,7.3,7.3s7.3-3.2,7.3-7.3C227.7,195.6,199.9,158.4,161.6,144.8z M70.3,81.3c0-31.5,25.7-57.2,57.2-57.2c31.5,0,57.2,25.7,57.2,57.2s-25.7,57.2-57.2,57.2C96,138.5,70.3,113.3,70.3,81.3z"/></g></g>
</svg>