<svg width="222" height="101" xmlns="http://www.w3.org/2000/svg" xmlns:svg="http://www.w3.org/2000/svg" xmlns:xlink="http://www.w3.org/1999/xlink" viewBox="0 0 222 101">
 <title>logo-black</title>
 <!-- Svg Icons : http://www.onlinewebfonts.com/icon -->
 <g>
  <title>Layer 1</title>
  <use xlink:href="#svg_2" transform="matrix(0.13415715695984345,0,0,0.1608490214777161,156.3888133232137,48.794278611512894) " y="-102.0059" x="-443.5097" id="svg_7"/>
  <g id="svg_11"/>
  <metadata>Svg Vector Icons : http://www.onlinewebfonts.com/icon</metadata>
  <g id="svg_15"/>
  <g id="svg_4">
   <g id="svg_5">
    <g id="svg_17" transform="matrix(0.15848139791126092,0,0,0.19310807275119998,197.00350443143626,109.96810063032811) ">
     <g id="svg_18">
      <g id="svg_19">
       <path fill="#5243c2" d="m105.50517,-505.98476c-9.5,2.7 -28.3,7.9 -41.8,11.6c-13.4,3.7 -37.7,10.4 -53.9,14.9c-73.4,20.4 -100.9,28 -106.3,29.4c-3.2,0.9 -4.6,1.5 -6,2.9c-2.5,2.3 -3.3,5.2 -2.5,8.3c1.1,4.3 1.3,4.5 31.4,17.2c23.3,9.9 27.9,11.6 28.9,11.3c0.7,-0.2 10.4,-5.5 21.5,-11.8c146.9,-81.7 137.4,-76.5 136.2,-75.3c-0.4,0.4 -5.6,4.7 -11.6,9.6c-6,4.8 -24.9,20.3 -42,34.3c-17.1,14 -40.1,32.7 -51.1,41.7c-11,9 -19.9,16.3 -19.8,16.4c0.6,0.5 92.6,39.1 94.1,39.4c3.8,0.8 9,-1.7 10.9,-5.5c0.3,-0.7 6.2,-23 13.1,-49.5c6.8,-26.5 15.1,-58.5 18.4,-71.2c3.9,-15.1 5.8,-23.3 5.6,-24.2c-0.1,-0.7 -1,-2 -2,-2.9c-1.4,-1.4 -2,-1.6 -3.8,-1.6c-1,0.1 -9.8,2.3 -19.3,5z" id="svg_20"/>
       <path fill="#5243c2" d="m-62.29483,-407.58476c0.1,0.2 8.1,18.3 17.7,40.1c13.4,30.3 18,40.1 19.1,41.3c3.2,3.3 8.3,3.4 11.6,0.2c2.7,-2.6 36.5,-45.7 36.1,-46.1c-0.6,-0.5 -34.8,-14.8 -35,-14.6c-0.1,0.1 -1.9,10.7 -4,23.5c-2.1,12.9 -4,23.3 -4.1,23.3c-0.1,0 -6.1,-13.7 -13.3,-30.6c-7.1,-16.8 -13.3,-30.8 -13.5,-31.1c-0.8,-0.7 -14.8,-6.5 -14.6,-6z" id="svg_21"/>
      </g>
     </g>
    </g>
    <text fill="#000000" stroke-width="0" x="80.30141" y="62.58224" id="svg_1" font-size="24" font-family="Sans-serif" text-anchor="middle" xml:space="preserve" stroke="#000000" transform="matrix(2.928238812798685,0,0,2.787023253168266,-136.14088137206608,-96.78330527008129) " font-weight="bold">2rism</text>
   </g>
  </g>
 </g>
</svg>
